/* XPM */
static char *_05db5fdd0b647ebd52d5fc6c56e64f6YT30fnXxgSPJnZnu[] = {
/* columns rows colors chars-per-pixel */
"32 32 2 1 ",
"  c None",
". c red",
/* pixels */
"                                ",
"                                ",
"              .                 ",
"               .                ",
"              .                 ",
"               .                ",
"         ....  ..               ",
"        ....... ..              ",
"        ..........   .  .       ",
"       ... .......   .....      ",
"      ..... .....     ....      ",
"      . .   ..     . ......     ",
"     .  ....       .  .....     ",
"     . ...           .......    ",
"     ....     ...    ......     ",
"     ....     .. .   ..  ..     ",
"     ...       ...       ..     ",
"     .. ..     . .       ...    ",
"     ..  .    ....     .....    ",
"     .....            ......    ",
"     .......       .. ......    ",
"     .......      .. ......     ",
"     ......  ..    . .....      ",
"      ....... .......... .      ",
"        ....... .........       ",
"       .. ........... ...       ",
"          ........... ..        ",
"           .........            ",
"                                ",
"                                ",
"                                ",
"                                "
};
