/* XPM */
static char *ce59b038e6134cf9ae11105ebbbf59a4jl8Yby7YkN7TV5cS[] = {
/* columns rows colors chars-per-pixel */
"16 16 2 1 ",
"  c None",
". c red",
/* pixels */
"                ",
"       .        ",
"                ",
"    ... .       ",
"    .....  ..   ",
"   .. ..   ..   ",
"  ....     ..   ",
"  ..   ..  ...  ",
"  ..   ..   ..  ",
"  ...      ...  ",
"   ...   . ...  ",
"   ..... ....   ",
"    ........    ",
"     .....      ",
"                ",
"                "
};
