/* XPM */
static char *_a03a5ca84b34fd89bf63f95e04581d4rqTl3L7I2lYlHMFW[] = {
/* columns rows colors chars-per-pixel */
"64 64 2 1 ",
"  c None",
". c red",
/* pixels */
"                                                                ",
"                                                                ",
"                                                                ",
"                             ..                                 ",
"                             .                                  ",
"                             .                                  ",
"                              ..                                ",
"                             ....                               ",
"                             . .                                ",
"                             .                                  ",
"                             ..                                 ",
"                    .         ..                                ",
"                  .........   ...                               ",
"                 ..........    ...                              ",
"                ..  ........   ....                             ",
"                  ............ .....      ..                    ",
"                ....................      .     .               ",
"               .....................      ..... ..              ",
"              ....    ..............      .........             ",
"             .... ...  .............       .........            ",
"             ... ....   ...........         .... ...            ",
"            ... .....   .........      ..  ........  .          ",
"           ...   ..     ........      .   ............          ",
"           ...  ...    .  .           . .  ...........          ",
"          ...    .......              ...   ..........          ",
"          ... ..........               .       ......           ",
"          ..  ........                    ..... .......         ",
"         ... .... ..                     .... .........         ",
"         ... .. ...             .         . ... .......         ",
"         ..... . ..        .........     .. ...  .....          ",
"         .... ....          ........     ... ..  .....          ",
"         .... ....           ..   ..      ....   .....          ",
"         .......             .......         .    ...  .        ",
"         ......              .......          ..  ....          ",
"         .... .  ...         ..   ...          .. .......       ",
"          ...   ....         ..   ...          .. .....         ",
"          ....   ....       ........          ... .......       ",
"          .....   ...       .......           ..........        ",
"          ..........            .           ...........         ",
"           .. ..... ...                    .............        ",
"          ..............              ...   .........           ",
"          .......  . ...             .....  ........ ...        ",
"          ..............            .. . .. ..........          ",
"           ........   .. .          .. .. . ..........          ",
"          .............   ...        ...  . .........           ",
"            ..... ....   .....           ........ ...           ",
"            .. ... ...... . ...  .. .... ......   ...           ",
"              ...... .....  ... ... ... .......  .              ",
"             .. ......     ....   ..................            ",
"             .. ...............  .................              ",
"             ...... ......................     ..               ",
"              ...     .................. ..... ..               ",
"                 . .  ...............  ......  .                ",
"                   .. . ....        ......  ....                ",
"                   ... .. ...............                       ",
"                      .  ..   .........                         ",
"                           .                                    ",
"                                                                ",
"                                                                ",
"                                                                ",
"                                                                ",
"                                                                ",
"                                                                ",
"                                                                "
};
