/* XPM */
static char *_4ff9b8137cb4b7b81ad88fd2183e32dg5MIxpXPvrjQ8Eeq[] = {
/* columns rows colors chars-per-pixel */
"128 128 2 1 ",
"  c None",
". c red",
/* pixels */
"                                                                                                                                ",
"                                                                                                                                ",
"                                                                                                                                ",
"                                                                                                                                ",
"                                                                                                                                ",
"                                                                                                                                ",
"                                                           ..                                                                   ",
"                                                         .....                                                                  ",
"                                                         .....                                                                  ",
"                                                        ....                                                                    ",
"                                                        ....                                                                    ",
"                                                          ....                                                                  ",
"                                                            ....                                                                ",
"                                                           ......                                                               ",
"                                                          ........                                                              ",
"                                                          ..........                                                            ",
"                                                         .........                                                              ",
"                                                         ...                                                                    ",
"                                                         ...                                                                    ",
"                                                          ...                                                                   ",
"                                                          ...                                                                   ",
"                                                          ....                                                                  ",
"                                       ...                 ....                                                                 ",
"                                       ...                 .....                                                                ",
"                                        ............        .....                                                               ",
"                                   ....................      .....                                                              ",
"                                  ..........          ...     .....                                                             ",
"                                 .......   ...........   .     ......                                                           ",
"                                .....   ................       .......                                                          ",
"                                ...   ....................     ........                                                         ",
"                               ..   .......................   .........              ...                                        ",
"                                  ......................................            . ..         .                              ",
"                                 .......................................            .           ..                              ",
"                                ........................................           ...          ..                              ",
"                               ..........................................          ........     ...                             ",
"                              ...........................................           ...........  ...                            ",
"                             ........       .............................           ............ .....                          ",
"                            .......           ............ ..............            ..................                         ",
"                           .......   ...       .......... ..............             ..................                         ",
"                          .......   ......     ......... ...............              ........... .....                         ",
"                          ......  .........     .......................                .......... .....                         ",
"                         ......  .....  ...     ....... .............             ...   ......... .....                         ",
"                        ......   ....  ...      ....... ...........           ..........  .............    .                    ",
"                        .....    ....  ...      ....... .........            ...       ... ............   ..                    ",
"                       ......    ....           .......  .......            ...    ....................  ...                    ",
"                       .....     ....          ........  ......             ..      ........................                    ",
"                      .....      .....         ........    ..              ..   .    .......................                    ",
"                     ......     .......       ..                           ..  ...   .......................                    ",
"                     .....       ...............                            .. ...     ....................                     ",
"                     .....         ..............                           ......      ...................                     ",
"                    .....    ....................                            ....           ..............                      ",
"                    .....   ....................                                              ............                      ",
"                   ......   ..................                                      ..........  ......... ....                  ",
"                   .....    ..........                                             ............  ........ ....                  ",
"                   .....   .......    ....                                         .............  ............                  ",
"                   .....  ......   ...                                             .....      ... ............                  ",
"                   ..... ......  ...  .                        ...                 ....  ...   ... ..... .....                  ",
"                  ...... ....  ...  .                          ...                 .... ......  ........ ....                   ",
"                  ...... ...  ... .. .                 ................            ...  ......   ............                   ",
"                  .......... ... .. ..                 .................           .... .......  ............                   ",
"                  .........  .. ... .                  .................           .... .. ...    ..........                    ",
"                  ......... ... .. ..                     .....    ......          .....   ...    ..........                    ",
"                  ........ ... ... .                      .....     .....           .........      .........                    ",
"                  ........ ... ..  .                      .....    .....            .. ......      ........   .                 ",
"                  ........ ......                         .....   ......                 ....      ........                     ",
"                  .......  .. ...                         .............                            ........   ..                ",
"                  .......  ..  ..                         .............                      ..    ....... .   .                ",
"                   ......  ..                             ..............                     ...   ....... ..  ..               ",
"                   ....... ..     .....                   .....    ......                      ..  ....... ..  ...              ",
"                   .......  .     ......                  .....     .....                      ..  ....... ... ...              ",
"                   .......       .......                  .....     .....                      ..  ........... ..               ",
"                   ........  ..  ... ...                  .....     .....                     .... ...... ....                  ",
"                   ........  ..  ... ....               ........  .......                    ..... ...... ........              ",
"                    ........   .     .....             .................                    ...... ...... .......               ",
"                    .........    .   .....             .................                    ...... ...... .......               ",
"                    ..... .....    ......              ...............                     ....... ..... .......                ",
"                   . ....  .............                        ...                     .. ...... ...... ......                 ",
"                   . ....  ...........                                                  ......... ............                  ",
"                   . .... . .........   ..                                            ..... ..... ..... ........                ",
"                   .. .... . ........  .......                                         ......................  ..               ",
"                   .. .... .. ........ ........                                        ....................                     ",
"                    .. .... .......   ....  ...                            ........    ...................                      ",
"                    .. .... ....     .... .. ...                          ..........    .................  ....                 ",
"                    ... .... .......  ..  ... ...                        .....  .....   ................ ......                 ",
"                     .. ............. ... ... ...                        ...      ....  ............... ....                    ",
"                     ... ........ .... .......... .                      ... ...   ...  .............. ... .                    ",
"                     ... ..... ....  .       ...  .                      ... ....  ...  .....................                   ",
"                     .... ..... ......     .....  ..                     ... ....   ..  ............. ......                    ",
"                    ...... ..... .............     ....                  ........   .. ............. .....                      ",
"                    ...... ...... .... .....        .......               ......   ... ............ .....                       ",
"                     . .... ...... ......            .......                 .     .. ............ . ...                        ",
"                       ....  ......  ....... ...   .. .......      .               .. ........... . ..  ...                     ",
"                        .... .......  ...........   .  .......    ....   .......  ..............   .. ....                      ",
"                        ..... .......   .............  .......  ......  .......  .............      ....                        ",
"                         .... .........   ...........   ...... ... .... ....... ...............  ....                           ",
"                             . ..........   .......     ...... ...  ... ...... ................                                 ",
"                               ............           ........  ..  .. ...... .................  .......                        ",
"                          ....  ................   ...........     .............................  .....                         ",
"                          ....  ..............................    ............................... ..                            ",
"                          ..   ..............................    .......................   ....... .                            ",
"                          ..   ....... ..................... ........................        ..... .                            ",
"                          ...........    ..........................................     ..   ......                             ",
"                           .......  .      ......................................   .. ....   .....                             ",
"                             .. ..        .  ..................................   .... ....   ....                              ",
"                                  ..   . . ...  ............................    .....  ..     ...                               ",
"                                  ..  . . .  ....   .....................    ........  ..    ....                               ",
"                                      . .. ..  .....      ..........       ..........  ..........                               ",
"                                   ..  . .. ...  .........             .............    ........                                ",
"                                       .. ..  ...  ................................      .......                                ",
"                                       .. ...  ....   ............................                                              ",
"                                        .  ...  .....     ......................                                                ",
"                                            ...   .....         ...........                                                     ",
"                                                    ....                                                                        ",
"                                                                                                                                ",
"                                                                                                                                ",
"                                                                                                                                ",
"                                                                                                                                ",
"                                                                                                                                ",
"                                                                                                                                ",
"                                                                                                                                ",
"                                                                                                                                ",
"                                                                                                                                ",
"                                                                                                                                ",
"                                                                                                                                ",
"                                                                                                                                ",
"                                                                                                                                ",
"                                                                                                                                ",
"                                                                                                                                "
};
