<svg width="1024" height="1024" viewBox="0 0 1024 1024" fill="none" xmlns="http://www.w3.org/2000/svg">
<path fill-rule="evenodd" clip-rule="evenodd" d="M575.403 793.241C575.452 793.226 575.503 793.222 575.604 793.214L575.605 793.214C575.626 793.212 575.648 793.211 575.672 793.209C575.687 793.207 575.702 793.206 575.718 793.205C575.782 793.199 575.86 793.192 575.957 793.181L576.71 793.203L577.26 793.483C577.759 794.148 577.26 794.646 576.097 794.646C574.935 794.646 574.437 794.148 574.935 793.483C574.979 793.46 575.018 793.44 575.052 793.421C575.088 793.402 575.119 793.385 575.147 793.37C575.172 793.356 575.194 793.344 575.213 793.333C575.307 793.281 575.354 793.256 575.403 793.241Z" fill="#FF0000"/>
<path fill-rule="evenodd" clip-rule="evenodd" d="M574.935 793.483C574.437 794.148 574.935 794.646 576.097 794.646C577.26 794.646 577.759 794.148 577.26 793.483L576.71 793.203L575.957 793.181C575.86 793.192 575.782 793.199 575.718 793.205C575.702 793.206 575.687 793.207 575.672 793.209L575.605 793.214L575.604 793.214C575.503 793.222 575.452 793.226 575.403 793.241C575.354 793.256 575.307 793.281 575.213 793.333C575.194 793.344 575.172 793.356 575.147 793.37C575.119 793.385 575.088 793.402 575.052 793.421C575.018 793.44 574.979 793.46 574.935 793.483Z" fill="#FF0000"/>
<path d="M354.811 428.144C355.862 428.531 355.614 428.161 355.793 429.056C355.793 431.049 350.81 432.544 324.233 439.188C295.996 445.998 273.739 456.961 259.952 470.747C242.013 488.52 233.21 513.103 235.369 540.012C236.366 552.802 236.2 553.632 232.545 556.124C228.227 559.113 226.566 559.28 222.413 556.954C218.593 554.629 215.105 545.991 213.776 535.195C212.281 523.402 216.434 504.466 223.077 492.506C242.678 457.459 278.556 437.195 330.379 431.713C342.671 430.384 353.302 428.89 354.132 428.391L354.811 428.144Z" fill="#FF0000"/>
<path d="M328.379 442.686C328.529 442.81 328.901 442.877 328.83 443.059C328.564 443.747 326.019 445.211 325.537 445.488L325.49 445.515C323.198 446.842 321.514 447.67 319.251 448.822C312.441 452.31 303.803 457.127 299.983 459.452C283.373 470.083 267.261 495.663 264.437 516.093C262.278 530.544 258.956 537.188 253.64 537.188C251.481 537.188 248.491 536.025 247.162 534.53C236.366 523.734 246.83 493.005 267.759 473.571C279.885 462.442 298.986 451.479 315.762 445.998C319.908 444.676 324.036 443.169 328.379 442.686Z" fill="#FF0000"/>
<path d="M314.02 457.116C314.069 458.991 311.172 461.945 309.949 463.438C299.817 475.73 296.495 482.042 292.508 496.493C290.681 503.801 288.19 510.778 287.359 511.94C285.2 514.432 280.715 514.598 278.057 511.94C274.735 508.618 275.732 500.313 280.881 489.849C286.529 478.388 290.349 473.737 301.644 465.099C305.576 462.814 309.452 458.044 314.02 457.116Z" fill="#FF0000"/>
<path d="M237.86 563.764C239.688 563.764 242.678 565.259 244.505 567.086C246.332 568.913 247.827 571.903 247.827 573.73C247.827 577.551 242.179 583.697 239.189 583.53C238.027 583.53 235.867 583.032 234.538 582.534C231.051 581.371 227.895 576.886 227.894 573.398C227.895 569.412 233.708 563.764 237.86 563.764Z" fill="#FF0000"/>
<path d="M253.67 585.642C257.354 586.62 259.408 588.536 258.457 592.5C257.129 596.154 253.64 597.151 250.318 594.659C246.664 592.002 247.827 586.354 252.145 585.69L253.67 585.642Z" fill="#FF0000"/>
<path d="M268.935 592.356L270.25 592.666C273.24 593.663 273.074 598.812 270.084 599.808C269.088 600.14 267.427 599.476 266.43 598.147C265.259 596.621 264.981 594.297 266.779 592.999C267.387 592.56 268.216 592.57 268.935 592.356Z" fill="#FF0000"/>
<path d="M204.448 610.617C207.302 614.642 209.385 619.172 211.617 623.561C235.369 670.9 271.247 697.31 318.586 702.625C339.349 704.785 357.786 696.812 364.264 682.859C368.251 673.89 368.251 668.907 364.098 662.097C360.278 655.951 349.481 650.303 341.674 650.137C335.03 650.137 326.227 655.785 324.068 661.266C321.576 667.744 325.895 676.215 333.037 679.205C338.685 681.531 341.841 680.866 337.024 678.208C333.369 676.049 333.203 667.246 336.857 662.097C340.844 656.449 351.308 656.948 357.62 663.259C372.403 678.209 349.814 699.636 331.21 688.341C326.891 685.683 325.23 685.351 322.739 687.012C315.763 691.331 305.963 681.032 305.962 669.239C305.963 665.585 305.298 665.086 300.481 665.086C291.18 665.086 290.681 662.429 298.654 654.29C302.641 650.303 307.291 646.649 309.118 645.985C312.275 644.988 312.275 644.822 309.617 640.005C306.959 635.188 306.959 634.856 310.447 631.866C317.59 626.053 336.692 625.72 345.329 631.202C347.654 632.697 349.315 632.863 349.979 631.866C351.475 629.375 358.617 629.873 363.932 632.696C371.407 636.517 377.219 644.656 380.209 655.12C382.036 661.764 383.863 665.086 385.857 665.585C390.175 666.747 392.999 673.724 391.67 680.7C390.009 689.836 380.875 701.463 370.742 707.608C352.139 718.904 330.214 720.731 303.471 713.422C292.01 710.266 286.695 710.1 294.501 713.09C296.661 713.92 301.976 716.08 306.128 717.907C314.102 721.395 334.366 726.212 344.166 726.876C349.149 727.375 349.98 728.039 350.478 731.859L350.976 736.344L356.956 732.191C367.254 725.215 376.223 727.375 397.151 742.324C407.284 749.632 407.782 749.799 410.938 746.975C415.755 742.656 414.26 735.846 408.114 734.849C403.962 734.185 403.131 733.188 403.131 729.036C403.131 724.551 403.796 724.053 408.446 723.554C418.911 722.558 427.714 737.673 424.06 749.964C419.077 766.409 395.159 773.551 366.091 767.239C351.308 763.917 339.183 759.266 319.417 748.802C268.922 722.06 227.064 675.717 209.125 626.052C207.591 621.715 205.892 617.423 204.624 612.995C204.019 610.88 203.669 611.397 204.448 610.617Z" fill="#FF0000"/>
<path d="M214.815 620.75C216.46 621.713 217.412 623.796 218.426 625.388C231.549 646.649 252.478 660.768 276.894 665.086C288.854 667.08 293.339 670.236 298.82 680.036C301.146 684.188 304.135 688.839 305.63 690.5C308.62 693.988 307.624 693.988 293.505 690.832C263.274 684.188 234.04 660.436 218.593 630.039C217.49 627.009 214.966 624.071 214.815 620.75Z" fill="#FF0000"/>
<path d="M319.749 814.246C364.929 845.141 468.796 867.565 530.087 863.744C575.931 860.755 604.502 852.782 651.508 829.195C670.112 819.893 680.411 815.741 686.39 815.076L694.861 814.08L691.373 818.066C686.224 823.714 684.065 828.697 684.064 834.012C684.065 847.3 675.594 860.755 664.797 864.741C660.811 866.07 658.817 868.063 658.153 871.053C656.658 878.527 654.831 880.188 643.702 883.843C618.288 892.48 564.304 897.463 529.589 894.307C457.833 887.829 380.708 864.243 326.393 821.72L325.814 821.269C322.489 818.675 319.163 816.079 315.959 813.336C315.553 812.989 315.156 812.664 314.789 812.365L314.784 812.361C313.426 811.251 312.493 810.49 313.16 810.212C315.13 811.155 316.948 812.373 318.761 813.587C318.905 813.684 319.05 813.78 319.194 813.877C319.379 814 319.563 814.123 319.749 814.246Z" fill="#FF0000"/>
<path d="M773.095 764.913C777.248 766.243 787.38 766.409 802.329 765.578L825.251 764.415L830.234 769.398C836.547 775.71 836.547 778.036 830.234 778.036C827.411 778.036 821.431 779.863 816.946 782.188C812.462 784.514 806.814 786.341 804.489 786.341C800.668 786.341 800.336 786.673 802.163 789.829C804.489 794.48 802.828 803.45 798.675 807.104C795.519 809.927 795.353 809.927 795.353 806.771C795.353 797.47 790.038 788.666 777.414 777.039C770.438 770.395 765.123 764.748 765.621 764.083C765.903 763.95 765.992 763.9 766.087 763.884C766.23 763.859 766.386 763.91 767.241 763.864C768.204 763.993 768.834 764.071 769.283 764.127C769.82 764.193 770.096 764.228 770.369 764.277C770.657 764.329 770.942 764.398 771.527 764.539C771.901 764.629 772.397 764.749 773.095 764.913Z" fill="#FF0000"/>
<path d="M847.749 723.434C849.966 723.817 851.254 725.144 852.492 726.876C856.645 733.687 843.523 745.48 823.922 752.29C806.482 758.436 774.59 761.924 768.943 758.269C767.448 757.273 769.441 756.443 774.756 755.612C792.031 753.121 804.323 747.805 822.926 735.347C824.704 734.276 826.482 733.081 828.28 731.872C834.277 727.838 840.502 723.652 847.749 723.434Z" fill="#FF0000"/>
<path d="M864.784 684.354C868.272 685.517 869.269 687.012 869.268 690.832C869.269 694.985 867.442 696.812 854.319 705.615C846.18 711.263 833.058 720.565 825.251 726.378C807.479 739.5 794.689 746.144 780.57 749.134C764.957 752.456 764.79 752.124 778.743 745.978C797.346 737.839 803.492 733.188 817.943 717.076C820.718 714.289 823.485 711.162 826.317 707.961C835.574 697.499 845.53 686.246 858.777 683.483C860.168 683.591 860.975 683.631 861.506 683.657C861.971 683.679 862.225 683.692 862.474 683.731C862.774 683.777 863.068 683.862 863.715 684.049L863.716 684.049C863.996 684.13 864.342 684.23 864.784 684.354Z" fill="#FF0000"/>
<path d="M885.712 654.124C894.018 656.117 895.513 667.91 888.038 671.896C886.045 672.893 878.57 674.554 871.428 675.219C864.119 676.049 855.648 677.876 852.326 679.205C848.672 680.7 836.547 691.663 822.096 706.28C798.841 729.7 788.875 737.507 773.428 743.985C769.94 745.314 767.116 746.144 767.116 745.812C767.116 745.314 770.272 743.154 774.092 740.829C784.224 734.849 799.34 719.402 810.136 704.12C822.594 686.348 841.197 667.246 852.492 660.436C858.971 656.548 866.298 654.503 873.756 653.566C875.162 653.389 876.581 653.382 878 653.375C878.31 653.374 878.62 653.373 878.93 653.369C879.03 653.368 879.13 653.367 879.229 653.365C879.529 653.361 879.828 653.354 880.127 653.344C881.488 653.487 882.257 653.555 882.755 653.599L882.758 653.599C883.169 653.635 883.396 653.655 883.621 653.688C884.011 653.745 884.394 653.84 885.712 654.124Z" fill="#FF0000"/>
<path d="M322.572 826.371C335.695 837.5 354.131 849.46 377.717 862.249C425.223 887.995 454.843 897.131 454.843 903.276C454.843 907.263 429.708 906.599 418.578 901.781C393.663 890.985 364.264 869.558 332.372 838.663C330.808 837.118 329.219 835.594 327.63 834.069L327.628 834.068C323.808 830.403 319.983 826.734 316.492 822.757C315.962 822.154 315.599 821.846 315.374 821.655C315.195 821.503 315.103 821.425 315.083 821.332C315.059 821.216 315.146 821.076 315.317 820.744C317.583 822.135 319.62 823.866 321.646 825.587C321.955 825.849 322.263 826.111 322.572 826.371Z" fill="#FF0000"/>
<path d="M340.844 856.27C358.119 873.711 372.735 889.324 373.233 891.151C374.396 894.639 371.573 899.29 368.417 899.29C367.254 899.29 363.102 897.131 358.949 894.639C354.963 891.982 348.651 886.5 344.83 882.514C333.203 869.724 316.427 843.148 310.945 828.697L310.954 828.461C319.988 835.279 328.099 843.45 336.123 851.533C337.698 853.119 339.269 854.702 340.844 856.27Z" fill="#FF0000"/>
<path d="M303.305 828.364C303.637 828.033 306.793 834.012 310.613 841.819C314.268 849.46 320.081 860.09 323.237 865.239C332.705 879.856 332.705 888.328 323.403 886.334C317.424 885.172 314.268 880.687 310.281 867.731C306.461 855.938 301.81 829.86 303.305 828.364Z" fill="#FF0000"/>
<path d="M289.352 866.07C295.498 866.07 297.491 855.937 291.677 853.778L291.623 853.762C291.487 853.721 291.369 853.684 291.266 853.652L291.107 853.603C290.785 853.503 290.637 853.457 290.486 853.433C290.358 853.413 290.227 853.408 289.986 853.4C289.721 853.392 289.324 853.378 288.65 853.335C288.594 853.35 288.538 853.364 288.482 853.377C288.339 853.411 288.194 853.441 288.05 853.471C287.65 853.555 287.25 853.638 286.878 853.802C283.243 855.408 282.86 859.672 284.369 862.914C285.366 864.575 287.525 866.07 289.352 866.07Z" fill="#FF0000"/>
<path d="M280.216 829.527C283.871 829.527 291.013 837.002 291.013 840.822C291.013 844.809 284.203 851.121 279.884 851.12C277.891 851.121 274.735 849.127 272.908 846.802C270.915 844.31 269.42 841.321 269.42 839.992C269.42 836.836 276.895 829.527 280.216 829.527Z" fill="#FF0000"/>
<path d="M300.697 869.704C303.068 870.528 303.984 871.351 303.969 873.876C303.305 877.697 300.315 878.361 297.657 875.205C295.996 873.378 295.996 872.05 297.325 870.72C297.554 870.559 297.732 870.43 297.875 870.325L297.879 870.322C298.199 870.089 298.347 869.982 298.512 869.926C298.654 869.879 298.809 869.869 299.096 869.852C299.413 869.833 299.893 869.805 300.697 869.704Z" fill="#FF0000"/>
<path d="M162.175 688.502C164.08 689.71 164.909 691.412 164.496 693.672L164.173 694.521C163.063 696.735 160.368 697.63 158.153 696.519C155.94 695.409 155.045 692.714 156.155 690.5C156.991 689.183 157.992 688.333 159.591 688.062C160.719 688.137 160.964 688.101 161.194 688.144C161.379 688.179 161.554 688.265 162.175 688.502Z" fill="#FF0000"/>
<path d="M164.496 635C182.787 672.581 198.162 700.134 217.098 728.205C232.047 750.297 244.173 772.388 242.345 774.215C241.847 774.548 240.02 772.388 238.026 769.232C234.04 762.754 228.393 759.765 219.921 759.764C204.142 759.765 191.351 751.459 188.361 739.5C187.365 735.514 187.033 726.378 187.531 719.069C188.029 710.931 187.697 704.12 186.534 701.629C184.873 697.975 184.707 698.307 185.537 704.286C186.7 713.422 183.711 721.063 177.897 724.052C171.087 727.707 167.1 727.042 163.28 722.225C156.968 714.086 160.124 703.29 168.097 705.781C170.921 706.612 171.419 706.114 171.419 701.961C171.419 699.303 169.26 690.002 166.602 681.364C163.944 672.727 158.655 657.485 155.488 646C152.321 634.515 149.988 614.5 153.488 602C155.988 611 158.379 622.43 164.496 635Z" fill="#FF0000"/>
<path fill-rule="evenodd" clip-rule="evenodd" d="M484.402 50C491.047 50 499.352 57.807 499.351 63.953C499.352 68.604 494.202 74.916 490.382 74.916C486.894 74.916 482.741 70.265 482.741 66.278C482.741 63.455 482.409 63.289 480.249 64.949C478.921 66.112 477.758 68.936 477.758 71.427C477.758 81.726 490.382 93.685 506.66 98.834C512.474 100.662 517.789 103.818 520.612 106.807C530.579 118.102 532.572 119.763 535.562 119.763C538.552 119.763 542.206 122.919 544.863 127.57C545.694 129.231 544.199 129.397 538.385 128.566C531.908 127.736 529.914 128.235 525.595 131.39C521.609 134.38 517.457 135.377 508.155 136.041C497.358 136.706 495.199 136.374 490.88 133.217L486.063 129.563L484.236 134.214C481.315 141.523 484.286 149.743 486.135 156.892C504.617 195.557 546.383 207.7 569.287 242.651C577.094 254.777 581.247 269.56 581.412 284.841C581.413 300.455 577.925 311.584 570.117 320.719C563.474 328.526 547.694 336.998 535.568 339.157C528.758 340.486 526.267 341.981 521.45 347.96C512.647 358.591 508.992 361.581 498.195 367.394C484.741 374.537 475.606 375.533 466.968 371.048C455.674 365.401 449.86 354.106 449.86 338.658C449.86 327.032 452.352 319.059 458.663 310.919C467.135 299.791 471.453 297.299 482.416 297.465C488.728 297.465 491.219 296.967 489.558 295.97C485.406 293.313 471.619 294.309 464.975 297.631C447.535 306.601 441.887 321.882 439.894 365.899C439.199 381.795 422.227 378.159 407.879 375.087C398.238 373.022 389.782 371.21 388.247 375.75C380.939 397.344 399.975 406.964 383.199 415.601C372.07 421.083 364.264 422.578 337.521 424.238C304.966 426.232 281.213 431.547 261.613 441.181C233.542 454.635 212.281 481.544 205.637 511.774C202.315 526.557 202.315 534.696 205.47 549.645C215.105 595.158 261.613 623.063 288.688 599.642C294.169 594.991 295 593.33 295.664 585.025C296.495 575.059 294.668 569.91 289.186 567.086C286.03 565.259 285.864 565.425 288.189 569.91C293.671 580.541 283.207 588.846 269.752 584.693C265.6 583.364 261.115 575.89 261.115 570.076C261.115 564.927 266.762 555.957 270.915 554.628C273.24 553.964 274.071 552.303 273.904 549.313C273.406 543.666 279.054 540.51 289.85 540.51C304.301 540.51 317.257 550.31 321.077 564.096C322.074 567.917 322.407 573.066 321.908 575.557C321.244 579.378 321.742 580.042 326.061 581.039C336.193 583.032 335.363 598.646 324.565 609.608C318.088 616.086 304.8 621.9 296.162 621.9H288.854L292.342 625.72C297.325 631.036 303.139 645.32 301.145 647.313C300.315 648.144 295.332 648.975 290.349 649.14C281.878 649.141 281.047 649.473 281.047 652.795C281.047 657.778 274.403 659.107 263.44 656.283C243.508 651.134 227.728 636.849 213.776 611.934C207.63 600.639 204.142 596.154 201.982 596.154C199.159 596.154 198.826 597.317 199.157 605.289C200.653 652.297 271.579 739.168 330.877 766.907C373.4 786.673 433.748 784.846 444.877 763.086C450.51 752.083 438.96 740.77 425.598 727.68C422.016 724.172 418.305 720.536 414.758 716.744C409.111 710.598 403.297 703.954 401.802 701.629C398.148 696.314 398.148 687.842 401.968 684.52C405.789 681.032 407.284 681.032 411.768 684.188C416.752 687.676 414.924 692.327 409.443 690.832C405.789 690.002 405.457 690.334 406.453 693.656C408.564 700.381 421.909 703.338 438.125 706.93C442.335 707.863 446.738 708.839 451.188 709.934C468.463 714.087 476.27 718.405 479.592 725.879C480.755 728.703 483.745 731.693 486.568 732.69C493.545 735.348 497.199 744.649 494.873 754.117C493.379 759.598 493.545 762.256 495.538 767.073C498.86 774.88 498.694 778.534 494.873 786.008C490.721 793.982 486.901 797.47 477.1 801.456L468.961 804.778L483.246 804.114C502.348 803.117 519.291 797.636 528.592 789.497C541.881 777.704 545.036 764.914 536.067 757.439C533.243 755.114 530.087 753.12 529.09 753.12C526.765 753.12 521.948 756.11 522.945 756.774C523.443 757.107 525.27 758.104 527.097 759.1C532.081 761.758 532.413 770.395 527.595 773.717C516.135 781.69 504.175 771.226 506.999 755.612C508.328 748.968 513.643 744.815 522.612 743.32C526.931 742.49 528.925 741.327 529.256 739.002C530.42 733.188 533.077 731.527 541.05 731.527C551.514 731.527 558.823 736.344 563.141 745.978C567.294 755.446 566.63 767.737 561.314 774.713C556.664 781.192 556.83 781.856 562.809 778.866C568.291 776.043 571.281 770.727 575.267 756.11C577.925 745.978 585.233 737.175 591.545 736.178C593.538 735.846 598.521 736.178 602.673 736.842C618.121 739.168 628.254 738.337 636.891 734.018C641.376 731.693 645.197 729.866 645.363 729.866C646.692 729.866 641.543 739.998 635.562 748.635C623.769 766.076 611.809 776.707 594.368 785.344C577.426 793.483 576.264 795.144 591.046 789.497C623.271 777.371 648.519 755.612 661.807 729.035C668.635 715.379 672.604 700.663 663.302 684.717C655.994 672.093 637.39 663.456 624.766 666.612C612.807 669.436 604.501 681.727 606.66 693.022C608.321 701.992 618.62 708.802 624.931 705.313C628.918 703.154 628.254 700.995 623.768 701.825C614.965 703.487 612.142 689.7 619.948 682.89C628.42 675.581 643.536 679.236 647.854 689.7C655.495 708.303 640.047 724.239 617.457 724.239C595.864 724.073 582.742 712.954 582.741 689.534C582.742 669.602 593.373 654.653 612.641 647.344C625.763 642.361 648.187 643.358 659.98 649.503C670.611 654.985 679.58 664.453 684.397 674.917C691.134 689.402 689.705 708.386 683.566 723.222C681.075 729.202 676.59 737.341 673.766 741.493L668.617 748.968L676.424 741.493C702.502 716.744 710.807 675.053 695.858 644.323C693.2 638.842 690.709 633.195 690.21 631.534C689.048 628.046 692.868 622.897 695.858 623.893C698.516 624.724 710.641 607.615 710.641 602.964C710.641 600.141 711.472 600.473 716.62 605.456C724.095 612.598 726.587 617.249 727.915 627.381C728.746 632.863 729.909 635.188 731.736 635.188C734.394 635.188 734.394 632.697 730.905 616.086C728.414 603.795 731.238 596.32 743.695 583.198C750.007 576.554 756.319 568.913 757.814 565.923C761.136 559.279 761.302 550.144 757.98 543.832C755.323 538.849 752.665 536.856 754.326 541.174C755.323 543.666 750.672 548.815 747.681 548.815C744.858 548.815 740.54 543.001 740.539 539.181C740.54 533.368 746.353 528.883 753.827 528.883C763.462 528.883 772.431 538.185 776.916 552.801C786.716 584.527 781.234 629.375 762.797 668.408C755.489 684.022 756.319 686.181 764.126 671.73C776.085 649.639 787.712 613.927 793.027 582.866C797.18 558.615 796.848 522.073 792.363 505.13C784.557 476.228 763.296 448.656 743.363 441.015C723.929 433.872 706.156 437.859 697.519 451.645C690.377 462.94 689.546 470.747 694.363 480.381C699.014 489.683 709.977 496.493 718.115 494.832C732.068 492.174 737.218 474.401 725.258 470.249C722.102 469.086 721.106 471.578 723.929 473.238C726.919 475.066 725.756 482.042 721.936 484.699C715.956 489.018 709.811 488.022 704.827 482.042C701.007 477.557 700.509 475.564 701.173 469.086C703.333 449.486 730.906 442.676 748.014 457.625C761.801 469.917 758.811 491.676 742.366 498.486L736.553 500.977L741.868 503.303C753.994 508.286 744.692 520.578 728.58 520.577C718.78 520.578 704.994 515.429 698.848 509.615C694.529 505.462 694.031 505.462 690.542 507.954C682.238 513.768 672.936 509.449 666.79 496.991C661.309 486.028 660.811 470.249 665.793 459.286C666.051 458.727 666.293 458.206 666.517 457.722L666.518 457.721C668.414 453.634 669.12 452.114 668.635 451.369C668.347 450.928 667.641 450.76 666.517 450.492C666.292 450.438 666.051 450.381 665.793 450.316C654.333 447.327 663.468 425.567 679.746 417.262C688.217 412.778 716.455 411.116 731.071 414.272C761.468 420.584 783.726 441.845 796.349 476.56C801.997 492.008 803.99 491.51 799.339 475.564C785.885 430.052 753.994 400.984 714.129 397.994C701.339 396.998 699.845 396.5 699.844 393.509C699.845 391.184 697.353 388.859 691.705 386.035C685.726 383.045 681.573 379.059 676.922 372.248C671.441 364.11 662.472 356.635 660.146 358.13C659.814 358.462 658.983 358.13 658.485 357.631C657.821 357.133 661.973 355.638 667.454 354.475C679.414 351.984 701.672 353.147 711.97 356.801C722.6 360.621 718.946 357.466 704.993 350.489C689.214 342.849 678.085 340.523 663.136 341.686C638.553 343.513 622.109 356.303 618.62 376.069C616.627 386.866 627.257 397.662 637.057 395.17C641.708 394.008 642.04 391.018 637.721 391.018C634.233 391.018 629.25 385.205 629.25 381.052C629.25 379.723 631.077 376.401 633.402 373.909C645.86 360.621 664.797 379.889 656.491 397.164C647.356 415.767 616.128 414.439 606.826 394.838C596.362 372.747 609.152 346.171 635.23 336.204C648.518 331.055 671.109 329.893 685.726 333.547C711.638 340.191 740.373 358.794 758.478 380.387L763.96 386.865L761.136 381.052C757.15 372.747 742.201 358.628 722.932 345.008C713.797 338.364 702.668 329.893 698.515 326.072C682.57 312.12 668.783 290.194 666.458 275.411C664.631 262.787 671.607 247.174 681.573 241.36C690.709 236.045 694.695 235.879 700.343 240.696C706.489 245.845 706.987 249.665 702.336 253.984C698.017 257.97 691.041 256.143 689.712 250.496L688.715 246.343L684.729 249.997C679.912 254.482 679.746 257.306 684.064 264.448C689.214 272.754 695.858 274.747 723.597 275.909C751.336 276.906 758.977 279.232 765.953 288.367C775.089 300.326 777.414 311.621 774.59 331.719C773.594 339.527 773.76 341.188 775.753 341.187C777.082 341.188 779.407 339.859 780.902 338.198C785.553 333.049 784.39 321.089 776.916 298.997C768.279 273.916 766.618 258.635 771.932 253.319C776.75 248.503 783.228 248.669 785.719 253.818C788.045 259.299 786.218 263.784 782.065 262.621C776.584 261.126 778.245 263.95 790.37 276.075C796.848 282.387 801.997 288.865 801.997 290.194C801.997 292.187 803.326 292.52 808.475 291.855C814.289 291.025 815.285 291.523 819.271 296.672C825.251 304.811 826.746 314.279 824.254 331.221C821.597 348.33 821.431 359.459 823.59 362.781C824.919 364.94 825.251 364.94 825.251 362.615C825.251 361.12 826.746 358.628 828.739 356.801C831.397 354.31 832.726 354.143 835.217 355.804C839.536 358.462 839.702 358.296 840.699 354.475C841.197 352.649 845.35 348.828 850 346.004C854.652 343.015 858.472 339.693 858.472 338.53C858.472 333.381 861.794 336.703 864.285 344.509C867.608 354.642 868.106 373.91 865.116 379.557C863.953 381.716 860.133 387.364 856.644 391.848C848.007 403.476 842.194 415.933 838.373 430.55C835.384 442.676 834.221 461.113 836.214 466.428C838.54 472.408 840.201 468.422 840.2 457.126C840.201 437.361 845.848 419.089 852.824 416.431C854.153 415.933 857.143 417.262 859.468 419.255C861.628 421.415 863.455 422.245 863.455 421.248C863.455 420.252 866.445 418.425 870.265 417.428C877.906 415.103 878.736 415.601 882.058 426.564C884.052 432.876 883.553 435.866 877.573 449.652C877.304 450.305 876.467 451.897 876.082 452.489C874.717 452.143 872.658 459.041 873.989 459.5L856.69 509.983C855.765 512.464 854.913 515.009 854.125 517.588C849.566 532.518 847.188 548.571 845.526 559.795L845.412 560.561L845.322 561.171C845.275 561.486 845.229 561.797 845.183 562.103C840.035 597.317 828.075 630.205 812.96 650.968C807.479 658.276 806.15 660.768 808.309 659.439C809.306 658.941 814.289 652.795 819.438 645.984C836.214 623.727 847.011 598.147 849.336 575.391C851.662 553.964 859.967 520.91 863.953 517.588C865.614 516.093 865.947 516.923 865.448 521.242C864.95 525.062 866.611 529.879 870.929 538.184C876.743 548.815 877.075 550.31 876.245 560.94C875.58 571.073 875.747 572.069 878.404 571.239C880.231 570.574 882.391 571.405 883.719 573.232C886.377 576.886 902.987 577.551 906.973 574.228C910.96 570.907 911.458 573.398 908.8 582.534C903.652 600.473 893.187 613.096 879.4 618.412L870.929 621.733H880.563C889.367 621.9 890.862 622.398 896.011 627.547C902.821 634.358 902.821 635.354 897.672 641.334C894.184 645.154 893.021 645.653 890.529 644.157C888.536 642.829 887.706 640.503 887.872 636.849C888.038 631.7 888.038 631.534 882.058 632.696C861.628 636.351 841.696 653.127 817.777 686.679C801.333 709.768 784.058 726.544 759.807 743.154C752.333 748.137 752.001 748.802 754.99 749.964C761.136 752.29 762.465 761.26 757.482 766.907C756.153 768.402 755.323 770.063 755.654 770.229C755.86 770.435 757.403 771.341 759.535 772.593L759.541 772.597L759.561 772.609C760.866 773.375 762.389 774.27 763.96 775.212C773.262 780.527 779.573 787.67 784.722 798.798C791.699 813.748 789.041 831.188 779.739 831.188C776.251 831.188 775.753 832.019 774.922 842.981C773.76 857.1 768.611 868.561 761.966 871.883C761.655 872.052 761.363 872.211 761.087 872.362C758.7 873.667 757.573 874.282 756.584 874.11C755.7 873.956 754.926 873.172 753.461 871.69C753.216 871.442 752.952 871.174 752.665 870.887C749.841 868.063 748.679 867.731 745.854 869.226C744.028 870.222 737.716 871.053 731.902 871.053C715.126 870.887 703.333 863.911 697.186 850.456C691.207 837.334 694.197 820.226 703.665 812.917C713.631 804.944 732.234 811.755 732.234 823.547C732.234 835.341 721.106 840.656 714.295 832.019C710.973 827.866 710.807 827.866 709.81 831.188C708.648 835.009 712.136 841.819 717.949 846.47C722.767 850.456 734.892 850.29 741.868 846.137C756.984 836.836 753.828 810.426 736.387 799.629C729.078 795.144 713.631 793.483 703.332 796.141C699.18 797.138 679.414 805.775 659.648 815.242C601.346 842.816 569.121 851.785 520.453 853.944C464.477 856.27 394.661 844.643 341.84 818.897C329.881 813.083 314.932 804.944 308.62 800.625C302.308 796.473 296.993 792.985 296.66 792.985C296.495 792.985 297.325 794.978 298.654 797.636C302.973 806.107 300.149 818.897 292.84 822.883C288.356 825.209 287.691 825.043 287.691 821.222C287.691 819.561 286.03 817.07 284.037 816.073C281.878 814.91 279.386 812.917 278.223 811.422C276.396 809.097 276.23 809.429 276.064 813.249C276.064 819.727 271.247 831.022 267.593 832.849C263.108 835.341 261.281 834.843 256.796 830.026C253.308 826.205 252.312 825.873 248.491 827.534C240.012 831.324 230.84 829.477 223.06 824.98L218.146 821.613C217.876 821.41 217.666 821.252 217.498 821.126C217.127 820.848 216.957 820.721 216.796 820.585C216.66 820.471 216.529 820.35 216.289 820.128L216.287 820.127L216.284 820.123C216.018 819.879 215.62 819.511 214.938 818.896C211.04 815.403 208.944 812.551 206.754 807.862L205.538 804.182C205.305 802.956 205.142 802.163 205.027 801.602C204.893 800.944 204.823 800.605 204.783 800.263C204.739 799.899 204.728 799.531 204.706 798.771C204.692 798.299 204.673 797.674 204.64 796.805C204.64 776.873 224.739 764.748 236.365 777.703C242.844 785.012 242.678 792.819 236.033 796.473C232.213 798.466 226.234 795.809 226.233 791.988C226.234 790.66 225.569 789.995 224.572 790.493C223.742 790.992 222.911 793.982 222.911 797.137C222.911 807.436 236.532 811.755 245.335 804.28C259.288 791.988 254.139 769.731 228.725 732.357C204.474 696.978 199.656 689.337 193.344 677.046C149.852 592.356 143.988 538 146.488 470.747C148.495 416.757 173.246 375.405 193.344 341.686C213.442 307.967 257.055 260.069 290.182 243C337.231 218.757 366.707 211.469 415.809 217.5C440.872 220.579 456.006 231.689 467.965 240.492C485.074 253.116 488.396 253.781 496.534 246.638C500.521 243.15 501.85 240.16 502.514 234.346C505.329 208.222 482.265 200.861 471.065 181.218C467.111 174.935 464.432 167.999 462.042 161.009C457.008 140.936 455.802 114.715 476.761 102.987L483.572 99.166L475.599 98.004C461.813 95.845 446.199 83.885 446.199 75.414C446.199 70.929 452.179 73.753 456.995 80.231C462.975 88.37 468.623 92.689 475.266 94.183C479.752 95.18 479.419 94.682 472.609 90.197C455.833 79.234 449.853 54.319 464.802 57.309C467.626 57.807 469.786 57.309 470.616 55.98C472.609 52.658 478.589 50 484.402 50ZM576.097 794.646C574.935 794.646 574.437 794.148 574.935 793.483C574.979 793.46 575.018 793.44 575.052 793.421C575.088 793.402 575.119 793.385 575.147 793.37L575.213 793.333C575.307 793.281 575.354 793.256 575.403 793.241C575.452 793.226 575.503 793.222 575.604 793.214L575.605 793.214L575.672 793.209L575.718 793.205C575.782 793.199 575.86 793.192 575.957 793.181L576.71 793.203L577.26 793.483C577.759 794.148 577.26 794.646 576.097 794.646ZM282.043 299.994C296.157 291.641 313.586 285.525 330.21 286.572C352.347 287.967 372.529 300.454 380.707 322.086C390.009 347.333 377.719 377.066 354.464 385.371C346.99 388.028 330.712 388.361 322.074 385.869C309.617 382.381 298.654 368.761 296.661 353.977C294.169 336.371 311.942 318.764 321.41 329.228C325.23 333.381 325.064 333.713 318.088 333.713C312.939 333.713 311.444 334.544 309.616 338.198C306.793 344.344 309.118 348.662 316.759 351.154C329.051 355.14 342.505 343.181 342.505 328.232C342.505 318.1 333.535 309.628 322.739 309.628C319.417 309.628 317.756 308.632 317.091 306.306C316.593 304.645 314.268 302.652 311.942 301.987C305.132 300.327 295.996 306.14 290.182 315.774C285.698 323.249 284.701 323.913 281.379 322.418C276.23 320.093 270.251 323.083 266.762 329.893C262.444 338.032 262.942 355.805 267.593 363.611C271.912 370.92 271.912 370.92 267.925 369.923C266.264 369.425 263.274 369.923 261.281 370.92C252.312 375.737 262.444 391.35 276.894 395.005C281.379 396.167 285.366 397.995 285.698 398.991C286.861 402.479 277.559 403.144 268.589 400.32C252.145 395.171 236.864 398.493 226.067 409.788C218.925 417.096 217.762 421.747 222.911 423.408C227.562 424.903 227.064 426.232 219.423 430.883C208.128 437.859 197.995 456.795 195.503 474.9C195.005 479.551 194.175 485.696 193.676 488.686C193.178 491.51 192.182 494.002 191.517 494.001C187.531 494.002 186.866 466.096 190.52 445.5C199.988 391.184 241.183 325.74 282.043 299.994Z" fill="#FF0000"/>
<path d="M876.082 452.489C874.717 452.143 872.658 459.041 873.989 459.5C873.989 459.5 875.264 455.227 876.082 452.489Z" fill="#FF0000"/>
<path d="M884.993 543.587C887.652 539.309 901.597 536.387 906.068 539.166C910.735 542.067 913.168 554.629 910.025 559.684C908.577 562.017 903.947 564.261 899.896 564.708C895.53 565.228 890.944 564.803 889.388 563.836C885.694 561.54 882.577 547.474 884.993 543.587Z" fill="#FF0000"/>
<path d="M881.514 519.824C883.216 517.087 892.14 515.217 895.001 516.996C897.987 518.852 899.545 526.891 897.534 530.125C896.606 531.619 893.644 533.054 891.052 533.34C888.257 533.673 885.323 533.401 884.327 532.783C881.963 531.313 879.968 522.312 881.514 519.824Z" fill="#FF0000"/>
<path d="M875.568 502.956C876.611 501.278 882.401 500.332 884.319 501.524C886.32 502.768 887.546 507.863 886.314 509.845C885.746 510.76 883.844 511.587 882.156 511.7C880.336 511.837 878.409 511.591 877.742 511.176C876.158 510.191 874.621 504.48 875.568 502.956Z" fill="#FF0000"/>
<path d="M397.572 208.479C358.627 205.85 331.642 217.116 299.499 227.762C274.189 236.186 250.533 255.631 249.268 253.377C247.614 248.313 251.906 230.442 267.225 220.997C271.488 205.805 282.941 195.735 295.263 196.088C299.37 196.206 308.256 198.355 315.158 200.809C322.859 203.488 329.506 205.009 332.219 204.562C336.186 203.95 335.911 203.701 329.93 202.884C320.82 201.535 314.271 196.593 312.964 190.187C311.285 182.643 313.003 178.984 318.673 176.608C328.215 172.73 337.756 178.686 333.203 185.689C331.64 188.183 331.985 188.798 335.984 189.92C338.543 190.638 348.081 191.073 357.116 190.848C366.15 190.622 383.015 191.388 394.428 192.52C448.086 199.279 466.434 222.903 472.112 227.256C475.804 230.459 473.656 229.327 471.614 228.757C453.101 214.774 427.484 210.497 397.572 208.479Z" fill="#FF0000"/>
<path d="M371.944 185.722C370.266 187.23 368.403 187.569 366.339 186.561L365.609 186.02C363.777 184.353 363.644 181.517 365.312 179.684C366.979 177.854 369.815 177.72 371.647 179.387C372.689 180.548 373.237 181.74 373.066 183.353C372.689 184.42 372.657 184.665 372.553 184.875C372.47 185.043 372.34 185.189 371.944 185.722Z" fill="#FF0000"/>
<path fill-rule="evenodd" clip-rule="evenodd" d="M516.259 448C508.219 448 501.701 454.58 501.701 462.697L501.73 463.267L501.211 463.313C497.918 463.602 493.478 463.747 487.894 463.747C480.734 463.747 475.005 463.53 470.709 463.097L455.458 461.579C455.315 461.579 455.028 461.506 454.599 461.362H453.739C449.157 461.362 445.47 462.844 442.677 465.808C439.885 468.771 438.488 472.638 438.488 477.409C438.488 481.457 439.598 484.855 441.819 487.602C444.038 490.348 446.795 491.721 450.088 491.721C451.377 491.721 453.131 491.469 455.35 490.963C457.571 490.457 459.253 490.203 460.399 490.203C464.265 490.203 466.198 495.046 466.198 504.732V564.803C466.198 574.633 464.265 579.549 460.399 579.549C459.253 579.549 457.571 579.296 455.35 578.79C453.131 578.284 451.377 578.031 450.088 578.031C446.795 578.031 444.038 579.404 441.819 582.151C439.598 584.898 438.488 588.295 438.488 592.343C438.488 597.114 439.885 600.945 442.677 603.837C445.47 606.729 449.157 608.174 453.739 608.174H455.458C458.322 608.174 463.048 607.813 469.635 607.09C476.223 606.367 481.235 606.005 484.672 606.005C489.397 606.005 493.765 606.15 497.774 606.439L506.65 607.07C508.181 614.651 513.129 619.762 521.079 620C527.989 619.648 534.086 615.176 535.311 608.049C548.182 607.315 561.288 604.898 571.774 596.789C581.584 589.199 586.488 578.537 586.488 564.803C586.488 558.731 585.128 552.876 582.407 547.237C578.827 539.864 571.452 533.937 560.282 529.455L554.912 527.286C572.526 523.093 581.333 513.046 581.333 497.143C581.333 489.481 578.97 482.65 574.245 476.65C569.519 470.651 563.361 466.639 555.772 464.615C547.583 462.598 539.202 461.51 530.761 461.586C530.378 453.907 523.647 448.136 516.259 448ZM541.165 502.781C541.165 493.095 533.718 488.252 518.825 488.252C513.384 488.252 509.661 488.686 507.656 489.553C504.649 490.999 503.145 494.107 503.145 498.878V511.672C503.145 514.564 503.718 516.371 504.863 517.094C505.579 517.672 507.369 517.961 510.233 517.961H516.892C524.339 517.961 530.246 516.588 534.613 513.841C538.981 511.094 541.165 507.408 541.165 502.781ZM538.373 548.972C533.074 545.358 526.057 543.551 517.322 543.551H510.878C507.727 543.551 505.651 544.021 504.649 544.96C503.646 545.9 503.145 547.671 503.145 550.273V566.103C503.145 571.597 504.72 575.393 507.871 577.489C511.021 579.585 516.749 580.633 525.055 580.633C531.355 580.633 536.475 579.043 540.413 575.863C544.351 572.682 546.32 568.489 546.32 563.285C546.32 557.357 543.671 552.586 538.373 548.972Z" fill="#FF0000"/>
</svg>
